<svg xmlns="http://www.w3.org/2000/svg" viewBox="0 0 64 64" role="img" aria-label="מִרְדָּף הַמִּלִּים">
  <defs>
    <linearGradient id="background" x1="8" y1="4" x2="56" y2="60" gradientUnits="userSpaceOnUse">
      <stop stop-color="#818cf8" />
      <stop offset="1" stop-color="#4f46e5" />
    </linearGradient>
    <linearGradient id="runner" x1="20" y1="22" x2="45" y2="52" gradientUnits="userSpaceOnUse">
      <stop stop-color="#a78bfa" />
      <stop offset="1" stop-color="#4338ca" />
    </linearGradient>
    <filter id="shadow" x="-20%" y="-20%" width="140%" height="150%" color-interpolation-filters="sRGB">
      <feDropShadow dx="0" dy="3" stdDeviation="3" flood-color="#312e81" flood-opacity=".28" />
    </filter>
  </defs>

  <rect width="64" height="64" rx="14" fill="url(#background)" />
  <path d="M10 18h12M7 25h14M11 32h9" fill="none" stroke="#c7d2fe" stroke-width="3.5" stroke-linecap="round" opacity=".78" />

  <g filter="url(#shadow)">
    <path d="M40.2 8.5c7.1 0 11.8 4.4 11.8 10.1 0 5.8-4.7 10.2-11.8 10.2h-7.4l-5.5 4.6.9-5.4c-4.2-1.6-6.7-5-6.7-9.4 0-5.7 4.8-10.1 11.9-10.1h6.8Z" fill="#ffffff" />
    <text x="36.2" y="24.2" fill="#4338ca" font-family="Rubik, Arial, sans-serif" font-size="18" font-weight="700" text-anchor="middle">א</text>
  </g>

  <ellipse cx="34" cy="55.5" rx="14" ry="3.5" fill="#312e81" opacity=".22" />
  <path d="M20 42c0-10.1 5.9-17 14-17s14 6.9 14 17c0 8.6-5.5 13-14 13s-14-4.4-14-13Z" fill="url(#runner)" filter="url(#shadow)" />
  <path d="M18.7 39.3 12.8 37M49.2 39.4l5.9-2.4M29.3 54.1l-3.8 5.1M38.7 54.1l3.8 5.1" fill="none" stroke="#312e81" stroke-width="4" stroke-linecap="round" />
  <circle cx="28.8" cy="39.1" r="5.2" fill="#ffffff" />
  <circle cx="39.2" cy="39.1" r="5.2" fill="#ffffff" />
  <circle cx="29.2" cy="39.8" r="2.6" fill="#111827" />
  <circle cx="39.6" cy="39.8" r="2.6" fill="#111827" />
  <path d="M29.7 47.5c2.8 2.7 5.9 2.7 8.7 0" fill="none" stroke="#ffffff" stroke-width="2.6" stroke-linecap="round" />
</svg>
